<svg xmlns="http://www.w3.org/2000/svg" viewBox="0 0 100 100">
  <defs>
    <linearGradient id="logoGrad" x1="0%" y1="0%" x2="100%" y2="100%">
      <stop offset="0%" stop-color="#00d4ff"/>
      <stop offset="50%" stop-color="#0066ff"/>
      <stop offset="100%" stop-color="#0033aa"/>
    </linearGradient>
    <filter id="logoShadow" x="-10%" y="-10%" width="120%" height="120%">
      <feDropShadow dx="0" dy="2" stdDeviation="3" flood-color="#0066ff" flood-opacity="0.5"/>
    </filter>
  </defs>
  <rect width="100" height="100" rx="22" fill="#05050A"/>
  <!-- N letter -->
  <path d="M 18 82 L 18 18 L 32 18 L 65 65 L 65 18 L 82 18 L 82 82 L 68 82 L 35 35 L 35 82 Z" 
        fill="url(#logoGrad)" 
        filter="url(#logoShadow)"
        stroke="#00d4ff" 
        stroke-width="1.5"/>
  <!-- Shine effect -->
  <path d="M 22 22 L 32 22 L 60 60 L 60 22 L 74 22 L 74 74 L 64 74 L 35 35 L 35 74 L 22 74 Z" 
        fill="url(#logoGrad)" 
        opacity="0.9"/>
  <!-- Highlight -->
  <path d="M 27 27 L 37 27 L 55 50 L 55 32 L 69 32 L 69 69 L 61 69 L 40 42 L 40 69 L 27 69 Z" 
        fill="#ffffff" 
        opacity="0.25"/>
</svg>